<svg width="448" height="28" viewBox="0 0 448 28" fill="none" xmlns="http://www.w3.org/2000/svg">
<path d="M23.4863 13.5723C23.4863 15.5293 23.1816 17.2812 22.5723 18.8281C21.9746 20.3633 21.1543 21.6641 20.1113 22.7305C19.0684 23.7852 17.8496 24.5938 16.4551 25.1562C15.0723 25.7188 13.5957 26 12.0254 26C10.9941 26 9.98047 25.877 8.98438 25.6309C8 25.3848 7.0625 25.0273 6.17188 24.5586C5.29297 24.0898 4.47852 23.5215 3.72852 22.8535C2.97852 22.1738 2.33398 21.4004 1.79492 20.5332C1.25586 19.6543 0.833984 18.6934 0.529297 17.6504C0.224609 16.5957 0.0722656 15.4648 0.0722656 14.2578C0.0722656 12.3828 0.376953 10.6543 0.986328 9.07227C1.60742 7.47852 2.46289 6.10156 3.55273 4.94141C4.6543 3.78125 5.94922 2.87305 7.4375 2.2168C8.9375 1.56055 10.5664 1.23242 12.3242 1.23242C13.8008 1.23242 15.2129 1.50781 16.5605 2.05859C17.9082 2.59766 19.0918 3.39453 20.1113 4.44922C21.1426 5.50391 21.9629 6.79883 22.5723 8.33398C23.1816 9.85742 23.4863 11.6035 23.4863 13.5723ZM18.7578 13.9062C18.7578 12.4531 18.5117 11.1816 18.0195 10.0918C17.5273 8.99023 16.8887 8.07031 16.1035 7.33203C15.3184 6.59375 14.4277 6.04297 13.4316 5.67969C12.4355 5.30469 11.4395 5.11719 10.4434 5.11719C9.29492 5.11719 8.22852 5.32812 7.24414 5.75C6.25977 6.17188 5.4043 6.78125 4.67773 7.57812C3.95117 8.36328 3.37695 9.32422 2.95508 10.4609C2.54492 11.5859 2.33984 12.8516 2.33984 14.2578C2.33984 15.5938 2.54492 16.7832 2.95508 17.8262C3.36523 18.8691 3.92773 19.7539 4.64258 20.4805C5.35742 21.1953 6.18945 21.7461 7.13867 22.1328C8.09961 22.5078 9.11914 22.6953 10.1973 22.6953C11.2871 22.6953 12.3418 22.5078 13.3613 22.1328C14.3926 21.7461 15.3066 21.1836 16.1035 20.4453C16.9121 19.6953 17.5566 18.7754 18.0371 17.6855C18.5176 16.584 18.7578 15.3242 18.7578 13.9062ZM46.9883 2.05859L43.4199 4.94141C43.4434 5.43359 43.4609 5.93164 43.4727 6.43555C43.4961 6.93945 43.5078 7.39062 43.5078 7.78906C43.5078 9.37109 43.4961 10.9238 43.4727 12.4473C43.4609 13.959 43.3848 15.4004 43.2441 16.7715C43.1035 18.1309 42.8809 19.3906 42.5762 20.5508C42.2832 21.6992 41.8555 22.6953 41.293 23.5391C40.7305 24.3711 40.0156 25.0273 39.1484 25.5078C38.2812 25.9766 37.209 26.2109 35.9316 26.2109C34.6426 26.2109 33.541 25.9004 32.627 25.2793C31.7129 24.6582 30.9395 23.8203 30.3066 22.7656C29.6855 21.7109 29.1816 20.4863 28.7949 19.0918C28.4199 17.6855 28.1211 16.1973 27.8984 14.627C27.6758 13.0566 27.5117 11.4512 27.4062 9.81055C27.3125 8.16992 27.2305 6.58203 27.1602 5.04688L23.627 2.95508L35.9316 1.67188L32.082 4.53711C32.0586 4.90039 32.0469 5.26367 32.0469 5.62695C32.0469 5.97852 32.0469 6.33594 32.0469 6.69922C32.0469 7.51953 32.0469 8.39844 32.0469 9.33594C32.0469 10.2734 32.0645 11.2344 32.0996 12.2188C32.1348 13.1914 32.1875 14.1699 32.2578 15.1543C32.3281 16.127 32.4277 17.0645 32.5566 17.9668C32.6973 18.8691 32.873 19.707 33.084 20.4805C33.2949 21.2539 33.5586 21.9277 33.875 22.502C34.1914 23.0762 34.5605 23.5273 34.9824 23.8555C35.416 24.1836 35.9141 24.3477 36.4766 24.3477C37.2266 24.3477 37.9121 24.1484 38.5332 23.75C39.1543 23.3516 39.6875 22.7305 40.1328 21.8867C40.5781 21.0312 40.9238 19.9355 41.1699 18.5996C41.4277 17.2637 41.5566 15.6523 41.5566 13.7656C41.5566 11.4688 41.4746 9.60547 41.3105 8.17578C41.1582 6.74609 41.0117 5.67969 40.8711 4.97656L37.3027 3.28906L46.9883 2.05859ZM67.625 2.09375L66.2539 12.3945L64.2324 4.87109L58.8359 5.48633L59.5566 23.0469L63.916 25.2793L49.8711 26.6152L54.9863 22.9062L55.8828 5.66211L50.3105 5.45117L48.1484 11.8496L47.4629 2.39258L67.625 2.09375ZM72.6875 26.1406C70.8477 26.1406 68.9785 26 67.0801 25.7188L71.8613 23.5215L73.4785 5.36328L68.0469 2.91992C69.1836 2.66211 70.3379 2.46289 71.5098 2.32227C72.6816 2.16992 73.7598 2.05859 74.7441 1.98828C75.8809 1.90625 76.9883 1.85938 78.0664 1.84766C78.8633 1.84766 79.6836 1.94141 80.5273 2.12891C81.3828 2.31641 82.2148 2.61523 83.0234 3.02539C83.832 3.42383 84.5938 3.93945 85.3086 4.57227C86.0234 5.20508 86.6445 5.96094 87.1719 6.83984C87.7109 7.71875 88.1387 8.73242 88.4551 9.88086C88.7715 11.0176 88.9297 12.3008 88.9297 13.7305C88.9297 15.3125 88.7012 16.7188 88.2441 17.9492C87.7871 19.1797 87.1602 20.252 86.3633 21.166C85.5781 22.0801 84.6582 22.8594 83.6035 23.5039C82.5488 24.1367 81.418 24.6465 80.2109 25.0332C79.0039 25.4199 77.7559 25.7012 76.4668 25.877C75.1895 26.0527 73.9297 26.1406 72.6875 26.1406ZM84.834 13.0449C84.834 12.4473 84.7871 11.8086 84.6934 11.1289C84.6113 10.4492 84.4648 9.77539 84.2539 9.10742C84.043 8.43945 83.7617 7.80078 83.4102 7.19141C83.0586 6.57031 82.6191 6.02539 82.0918 5.55664C81.5762 5.08789 80.9609 4.71289 80.2461 4.43164C79.5312 4.15039 78.7051 4.00977 77.7676 4.00977C77.2754 4.00977 76.7598 4.04492 76.2207 4.11523V23.8027C77.8145 23.5801 79.1562 23.1641 80.2461 22.5547C81.3477 21.9453 82.2383 21.1777 82.918 20.252C83.5977 19.3145 84.084 18.2422 84.377 17.0352C84.6816 15.8164 84.834 14.4863 84.834 13.0449ZM114.471 13.5723C114.471 15.5293 114.166 17.2812 113.557 18.8281C112.959 20.3633 112.139 21.6641 111.096 22.7305C110.053 23.7852 108.834 24.5938 107.439 25.1562C106.057 25.7188 104.58 26 103.01 26C101.979 26 100.965 25.877 99.9688 25.6309C98.9844 25.3848 98.0469 25.0273 97.1562 24.5586C96.2773 24.0898 95.4629 23.5215 94.7129 22.8535C93.9629 22.1738 93.3184 21.4004 92.7793 20.5332C92.2402 19.6543 91.8184 18.6934 91.5137 17.6504C91.209 16.5957 91.0566 15.4648 91.0566 14.2578C91.0566 12.3828 91.3613 10.6543 91.9707 9.07227C92.5918 7.47852 93.4473 6.10156 94.5371 4.94141C95.6387 3.78125 96.9336 2.87305 98.4219 2.2168C99.9219 1.56055 101.551 1.23242 103.309 1.23242C104.785 1.23242 106.197 1.50781 107.545 2.05859C108.893 2.59766 110.076 3.39453 111.096 4.44922C112.127 5.50391 112.947 6.79883 113.557 8.33398C114.166 9.85742 114.471 11.6035 114.471 13.5723ZM109.742 13.9062C109.742 12.4531 109.496 11.1816 109.004 10.0918C108.512 8.99023 107.873 8.07031 107.088 7.33203C106.303 6.59375 105.412 6.04297 104.416 5.67969C103.42 5.30469 102.424 5.11719 101.428 5.11719C100.279 5.11719 99.2129 5.32812 98.2285 5.75C97.2441 6.17188 96.3887 6.78125 95.6621 7.57812C94.9355 8.36328 94.3613 9.32422 93.9395 10.4609C93.5293 11.5859 93.3242 12.8516 93.3242 14.2578C93.3242 15.5938 93.5293 16.7832 93.9395 17.8262C94.3496 18.8691 94.9121 19.7539 95.627 20.4805C96.3418 21.1953 97.1738 21.7461 98.123 22.1328C99.084 22.5078 100.104 22.6953 101.182 22.6953C102.271 22.6953 103.326 22.5078 104.346 22.1328C105.377 21.7461 106.291 21.1836 107.088 20.4453C107.896 19.6953 108.541 18.7754 109.021 17.6855C109.502 16.584 109.742 15.3242 109.742 13.9062ZM139.994 13.5723C139.994 15.5293 139.689 17.2812 139.08 18.8281C138.482 20.3633 137.662 21.6641 136.619 22.7305C135.576 23.7852 134.357 24.5938 132.963 25.1562C131.58 25.7188 130.104 26 128.533 26C127.502 26 126.488 25.877 125.492 25.6309C124.508 25.3848 123.57 25.0273 122.68 24.5586C121.801 24.0898 120.986 23.5215 120.236 22.8535C119.486 22.1738 118.842 21.4004 118.303 20.5332C117.764 19.6543 117.342 18.6934 117.037 17.6504C116.732 16.5957 116.58 15.4648 116.58 14.2578C116.58 12.3828 116.885 10.6543 117.494 9.07227C118.115 7.47852 118.971 6.10156 120.061 4.94141C121.162 3.78125 122.457 2.87305 123.945 2.2168C125.445 1.56055 127.074 1.23242 128.832 1.23242C130.309 1.23242 131.721 1.50781 133.068 2.05859C134.416 2.59766 135.6 3.39453 136.619 4.44922C137.65 5.50391 138.471 6.79883 139.08 8.33398C139.689 9.85742 139.994 11.6035 139.994 13.5723ZM135.266 13.9062C135.266 12.4531 135.02 11.1816 134.527 10.0918C134.035 8.99023 133.396 8.07031 132.611 7.33203C131.826 6.59375 130.936 6.04297 129.939 5.67969C128.943 5.30469 127.947 5.11719 126.951 5.11719C125.803 5.11719 124.736 5.32812 123.752 5.75C122.768 6.17188 121.912 6.78125 121.186 7.57812C120.459 8.36328 119.885 9.32422 119.463 10.4609C119.053 11.5859 118.848 12.8516 118.848 14.2578C118.848 15.5938 119.053 16.7832 119.463 17.8262C119.873 18.8691 120.436 19.7539 121.15 20.4805C121.865 21.1953 122.697 21.7461 123.646 22.1328C124.607 22.5078 125.627 22.6953 126.705 22.6953C127.795 22.6953 128.85 22.5078 129.869 22.1328C130.9 21.7461 131.814 21.1836 132.611 20.4453C133.42 19.6953 134.064 18.7754 134.545 17.6855C135.025 16.584 135.266 15.3242 135.266 13.9062ZM163.602 19.0215C163.285 20.627 162.881 21.9512 162.389 22.9941C161.896 24.0254 161.398 24.8398 160.895 25.4375C160.391 26.0352 159.916 26.4512 159.471 26.6855C159.037 26.9199 158.709 27.0371 158.486 27.0371C158.135 27.0371 157.684 26.8848 157.133 26.5801C156.582 26.2754 155.973 25.8828 155.305 25.4023C154.648 24.9219 153.963 24.3828 153.248 23.7852C152.545 23.1758 151.865 22.5723 151.209 21.9746C150.553 21.377 149.949 20.8145 149.398 20.2871C148.848 19.7598 148.402 19.3262 148.062 18.9863L148.203 23.3281L151.912 25.3848L140.75 26.1758L144.494 22.7305L145.145 5.04688L140.574 2.84961C142.859 2.7207 144.799 2.62695 146.393 2.56836C147.986 2.49805 149.305 2.45117 150.348 2.42773C151.391 2.4043 152.193 2.39258 152.756 2.39258C153.318 2.39258 153.717 2.39258 153.951 2.39258C154.455 2.39258 155 2.43945 155.586 2.5332C156.184 2.61523 156.775 2.76172 157.361 2.97266C157.947 3.17187 158.516 3.42969 159.066 3.74609C159.617 4.0625 160.104 4.44922 160.525 4.90625C160.947 5.36328 161.281 5.89648 161.527 6.50586C161.785 7.10352 161.914 7.7832 161.914 8.54492C161.914 8.7207 161.891 8.9668 161.844 9.2832C161.809 9.58789 161.727 9.94531 161.598 10.3555C161.469 10.7539 161.275 11.1816 161.018 11.6387C160.76 12.084 160.408 12.5352 159.963 12.9922C159.529 13.4375 158.99 13.8711 158.346 14.293C157.701 14.7148 156.922 15.0898 156.008 15.418C155.105 15.7461 154.051 16.0156 152.844 16.2266C151.648 16.4258 150.277 16.5371 148.73 16.5605C149.492 17.1348 150.318 17.75 151.209 18.4062C152.1 19.0508 153.002 19.6484 153.916 20.1992C154.83 20.7383 155.727 21.1895 156.605 21.5527C157.484 21.9043 158.305 22.0801 159.066 22.0801C159.43 22.0801 159.816 22.0391 160.227 21.957C160.648 21.875 161.059 21.7227 161.457 21.5C161.867 21.2656 162.254 20.9551 162.617 20.5684C162.992 20.1699 163.32 19.6543 163.602 19.0215ZM156.834 9.37109C156.834 9.00781 156.805 8.64453 156.746 8.28125C156.688 7.91797 156.564 7.57227 156.377 7.24414C156.189 6.91602 155.92 6.60547 155.568 6.3125C155.217 6.01953 154.742 5.76758 154.145 5.55664C153.559 5.3457 152.832 5.18164 151.965 5.06445C151.098 4.93555 150.061 4.87109 148.854 4.87109C148.666 4.87109 148.484 4.87109 148.309 4.87109C148.133 4.87109 147.951 4.88281 147.764 4.90625L147.939 14.293C148.678 14.2812 149.41 14.2227 150.137 14.1172C150.863 14 151.555 13.8418 152.211 13.6426C152.867 13.4434 153.477 13.2031 154.039 12.9219C154.613 12.6406 155.105 12.3242 155.516 11.9727C155.926 11.6094 156.248 11.2109 156.482 10.7773C156.717 10.3438 156.834 9.875 156.834 9.37109ZM197.07 4.08008L193.291 5.55664L186.523 14.1875L191.498 22.9062L196.824 23.8379L185.732 26.8965L188.896 22.9062L184.484 16.8594L179.439 23.2578L182.393 26.3164L172.127 23.9082L177.453 22.3965L182.709 14.4512L176.24 5.62695L172.777 4.83594L183.764 1.51367L181.162 4.76562L184.836 11.1992L188.949 5.01172L185.662 1.98828L197.07 4.08008ZM226.883 7.92969C226.883 9.00781 226.725 9.91602 226.408 10.6543C226.092 11.3926 225.67 12.002 225.143 12.4824C224.615 12.9629 224.012 13.3379 223.332 13.6074C222.652 13.877 221.955 14.0703 221.24 14.1875C222.143 14.5156 222.875 14.9316 223.438 15.4355C224.012 15.9395 224.457 16.4668 224.773 17.0176C225.102 17.5566 225.324 18.0898 225.441 18.6172C225.559 19.1328 225.617 19.5664 225.617 19.918C225.617 20.7969 225.488 21.5645 225.23 22.2207C224.973 22.877 224.621 23.4395 224.176 23.9082C223.742 24.377 223.232 24.7637 222.646 25.0684C222.061 25.373 221.434 25.6191 220.766 25.8066C220.109 25.9824 219.43 26.1055 218.727 26.1758C218.035 26.2461 217.361 26.2812 216.705 26.2812C216.482 26.2812 216.254 26.2754 216.02 26.2637C215.797 26.2637 215.516 26.252 215.176 26.2285C214.836 26.2168 214.408 26.1934 213.893 26.1582C213.389 26.123 212.738 26.0762 211.941 26.0176C211.145 25.959 210.178 25.8887 209.041 25.8066C207.904 25.7129 206.545 25.6074 204.963 25.4902L209.217 22.8711L210.465 4.29102L205.859 1.30273C208.027 1.32617 209.926 1.34961 211.555 1.37305C213.195 1.39648 214.578 1.41992 215.703 1.44336C217.016 1.4668 218.141 1.49023 219.078 1.51367C219.992 1.51367 220.912 1.6543 221.838 1.93555C222.775 2.20508 223.613 2.60937 224.352 3.14844C225.102 3.6875 225.711 4.36133 226.18 5.16992C226.648 5.9668 226.883 6.88672 226.883 7.92969ZM222.242 8.03516C222.242 7.92969 222.225 7.74805 222.189 7.49023C222.166 7.2207 222.084 6.92188 221.943 6.59375C221.814 6.25391 221.609 5.90234 221.328 5.53906C221.047 5.16406 220.654 4.82422 220.15 4.51953C219.646 4.21484 219.008 3.96289 218.234 3.76367C217.473 3.55273 216.541 3.44141 215.439 3.42969C214.854 3.42969 214.279 3.46484 213.717 3.53516V13.2559C214.021 13.2793 214.326 13.291 214.631 13.291C214.936 13.291 215.205 13.291 215.439 13.291C216.564 13.291 217.514 13.1797 218.287 12.957C219.061 12.7344 219.699 12.4473 220.203 12.0957C220.707 11.7441 221.094 11.3633 221.363 10.9531C221.645 10.5312 221.85 10.127 221.979 9.74023C222.107 9.3418 222.184 8.99023 222.207 8.68555C222.23 8.38086 222.242 8.16406 222.242 8.03516ZM215.545 15.1719C215.287 15.1719 214.994 15.1719 214.666 15.1719C214.338 15.1719 214.021 15.1836 213.717 15.207V23.6621C214.244 23.7559 214.73 23.8203 215.176 23.8555C215.621 23.8906 216.066 23.9082 216.512 23.9082C217.109 23.9082 217.701 23.8438 218.287 23.7148C218.885 23.5742 219.418 23.3398 219.887 23.0117C220.367 22.6719 220.754 22.2207 221.047 21.6582C221.34 21.0957 221.486 20.3926 221.486 19.5488C221.486 19.1152 221.387 18.6406 221.188 18.125C220.988 17.6094 220.66 17.1348 220.203 16.7012C219.746 16.2676 219.137 15.9043 218.375 15.6113C217.613 15.3184 216.67 15.1719 215.545 15.1719ZM250.438 19.0215C250.121 20.627 249.717 21.9512 249.225 22.9941C248.732 24.0254 248.234 24.8398 247.73 25.4375C247.227 26.0352 246.752 26.4512 246.307 26.6855C245.873 26.9199 245.545 27.0371 245.322 27.0371C244.971 27.0371 244.52 26.8848 243.969 26.5801C243.418 26.2754 242.809 25.8828 242.141 25.4023C241.484 24.9219 240.799 24.3828 240.084 23.7852C239.381 23.1758 238.701 22.5723 238.045 21.9746C237.389 21.377 236.785 20.8145 236.234 20.2871C235.684 19.7598 235.238 19.3262 234.898 18.9863L235.039 23.3281L238.748 25.3848L227.586 26.1758L231.33 22.7305L231.98 5.04688L227.41 2.84961C229.695 2.7207 231.635 2.62695 233.229 2.56836C234.822 2.49805 236.141 2.45117 237.184 2.42773C238.227 2.4043 239.029 2.39258 239.592 2.39258C240.154 2.39258 240.553 2.39258 240.787 2.39258C241.291 2.39258 241.836 2.43945 242.422 2.5332C243.02 2.61523 243.611 2.76172 244.197 2.97266C244.783 3.17187 245.352 3.42969 245.902 3.74609C246.453 4.0625 246.939 4.44922 247.361 4.90625C247.783 5.36328 248.117 5.89648 248.363 6.50586C248.621 7.10352 248.75 7.7832 248.75 8.54492C248.75 8.7207 248.727 8.9668 248.68 9.2832C248.645 9.58789 248.562 9.94531 248.434 10.3555C248.305 10.7539 248.111 11.1816 247.854 11.6387C247.596 12.084 247.244 12.5352 246.799 12.9922C246.365 13.4375 245.826 13.8711 245.182 14.293C244.537 14.7148 243.758 15.0898 242.844 15.418C241.941 15.7461 240.887 16.0156 239.68 16.2266C238.484 16.4258 237.113 16.5371 235.566 16.5605C236.328 17.1348 237.154 17.75 238.045 18.4062C238.936 19.0508 239.838 19.6484 240.752 20.1992C241.666 20.7383 242.562 21.1895 243.441 21.5527C244.32 21.9043 245.141 22.0801 245.902 22.0801C246.266 22.0801 246.652 22.0391 247.062 21.957C247.484 21.875 247.895 21.7227 248.293 21.5C248.703 21.2656 249.09 20.9551 249.453 20.5684C249.828 20.1699 250.156 19.6543 250.438 19.0215ZM243.67 9.37109C243.67 9.00781 243.641 8.64453 243.582 8.28125C243.523 7.91797 243.4 7.57227 243.213 7.24414C243.025 6.91602 242.756 6.60547 242.404 6.3125C242.053 6.01953 241.578 5.76758 240.98 5.55664C240.395 5.3457 239.668 5.18164 238.801 5.06445C237.934 4.93555 236.896 4.87109 235.689 4.87109C235.502 4.87109 235.32 4.87109 235.145 4.87109C234.969 4.87109 234.787 4.88281 234.6 4.90625L234.775 14.293C235.514 14.2812 236.246 14.2227 236.973 14.1172C237.699 14 238.391 13.8418 239.047 13.6426C239.703 13.4434 240.312 13.2031 240.875 12.9219C241.449 12.6406 241.941 12.3242 242.352 11.9727C242.762 11.6094 243.084 11.2109 243.318 10.7773C243.553 10.3438 243.67 9.875 243.67 9.37109ZM269.633 25.3496L249.822 26.1406L254.217 21.6406L255.447 5.45117L250.156 2.84961L268.982 1.51367L269.299 9.75781L266.029 3.9043L257.996 5.1875L258.26 13.502L260.088 13.2559L263.727 8.43945L263.973 19.5137L260.809 14.9785L258.295 15.3477L258.506 22.6074L266.381 23.3281L269.334 15.9629L269.633 25.3496ZM290.516 25.3496L270.705 26.1406L275.1 21.6406L276.33 5.45117L271.039 2.84961L289.865 1.51367L290.182 9.75781L286.912 3.9043L278.879 5.1875L279.143 13.502L280.971 13.2559L284.609 8.43945L284.855 19.5137L281.691 14.9785L279.178 15.3477L279.389 22.6074L287.264 23.3281L290.217 15.9629L290.516 25.3496ZM319.414 2.49805L314.422 3.93945L311.855 26.3516L300.482 8.82617L298.689 22.4316L303.576 25.0332L292.027 25.8945L296.633 22.4316L296.967 4.83594L291.711 2.99023L303.189 1.0918L310.027 18.7578L312.119 4.39648L308.27 0.757812L319.414 2.49805ZM322.596 23.4863L333.688 22.3965L337.273 16.5957L335.955 26.3164L318.482 25.4902L330.26 5.52148L321.664 7.52539L319.537 11.7793L319.027 1.23242L320.908 3.46484L337.273 2.67383L322.596 23.4863ZM347.979 2.19922C348.775 2.19922 349.537 2.27539 350.264 2.42773C351.002 2.56836 351.688 2.76172 352.32 3.00781C352.953 3.24219 353.527 3.51172 354.043 3.81641C354.559 4.12109 354.998 4.42578 355.361 4.73047L359.932 1.58398L354.676 11.6738L354.271 6.38281C353.932 6.14844 353.562 5.94336 353.164 5.76758C352.777 5.58008 352.385 5.42773 351.986 5.31055C351.6 5.18164 351.225 5.08203 350.861 5.01172C350.498 4.92969 350.176 4.86523 349.895 4.81836C349.613 4.77148 349.385 4.74219 349.209 4.73047C349.045 4.70703 348.957 4.69531 348.945 4.69531C348.148 4.69531 347.48 4.7832 346.941 4.95898C346.402 5.13477 345.963 5.36328 345.623 5.64453C345.295 5.92578 345.055 6.24805 344.902 6.61133C344.762 6.96289 344.691 7.32031 344.691 7.68359C344.691 8.42188 344.844 9.04883 345.148 9.56445C345.453 10.0684 345.916 10.5195 346.537 10.918C347.158 11.3164 347.949 11.6914 348.91 12.043C349.871 12.3828 351.002 12.752 352.303 13.1504C353.088 13.3965 353.826 13.7305 354.518 14.1523C355.221 14.5625 355.83 15.0488 356.346 15.6113C356.861 16.1621 357.266 16.7832 357.559 17.4746C357.863 18.1543 358.016 18.8867 358.016 19.6719C358.016 20.5859 357.887 21.4004 357.629 22.1152C357.371 22.8184 357.025 23.4395 356.592 23.9785C356.17 24.5059 355.678 24.957 355.115 25.332C354.553 25.6953 353.967 25.9883 353.357 26.2109C352.76 26.4453 352.15 26.6094 351.529 26.7031C350.92 26.8086 350.346 26.8613 349.807 26.8613C348.225 26.8613 346.789 26.5918 345.5 26.0527C344.211 25.5137 343.01 24.7754 341.896 23.8379L337.326 26.9668L342.424 17.9316C342.564 18.7754 342.811 19.5898 343.162 20.375C343.525 21.1484 343.971 21.8398 344.498 22.4492C345.025 23.0586 345.635 23.5449 346.326 23.9082C347.018 24.2715 347.773 24.4531 348.594 24.4531C349.25 24.4531 349.848 24.3535 350.387 24.1543C350.938 23.9551 351.406 23.6914 351.793 23.3633C352.18 23.0234 352.479 22.6367 352.689 22.2031C352.912 21.7578 353.023 21.2949 353.023 20.8145C353.023 20.1465 352.836 19.5723 352.461 19.0918C352.086 18.5996 351.594 18.166 350.984 17.791C350.375 17.4043 349.678 17.0527 348.893 16.7363C348.119 16.4082 347.322 16.0742 346.502 15.7344C345.682 15.3945 344.879 15.0195 344.094 14.6094C343.32 14.1992 342.629 13.7188 342.02 13.168C341.41 12.6055 340.918 11.9492 340.543 11.1992C340.168 10.4492 339.98 9.56445 339.98 8.54492C339.98 7.75977 340.133 6.99219 340.438 6.24219C340.754 5.48047 341.234 4.80078 341.879 4.20312C342.535 3.60547 343.367 3.125 344.375 2.76172C345.383 2.38672 346.584 2.19922 347.979 2.19922ZM380.41 2.09375L379.039 12.3945L377.018 4.87109L371.621 5.48633L372.342 23.0469L376.701 25.2793L362.656 26.6152L367.771 22.9062L368.668 5.66211L363.096 5.45117L360.934 11.8496L360.248 2.39258L380.41 2.09375ZM405.178 13.5723C405.178 15.5293 404.873 17.2812 404.264 18.8281C403.666 20.3633 402.846 21.6641 401.803 22.7305C400.76 23.7852 399.541 24.5938 398.146 25.1562C396.764 25.7188 395.287 26 393.717 26C392.686 26 391.672 25.877 390.676 25.6309C389.691 25.3848 388.754 25.0273 387.863 24.5586C386.984 24.0898 386.17 23.5215 385.42 22.8535C384.67 22.1738 384.025 21.4004 383.486 20.5332C382.947 19.6543 382.525 18.6934 382.221 17.6504C381.916 16.5957 381.764 15.4648 381.764 14.2578C381.764 12.3828 382.068 10.6543 382.678 9.07227C383.299 7.47852 384.154 6.10156 385.244 4.94141C386.346 3.78125 387.641 2.87305 389.129 2.2168C390.629 1.56055 392.258 1.23242 394.016 1.23242C395.492 1.23242 396.904 1.50781 398.252 2.05859C399.6 2.59766 400.783 3.39453 401.803 4.44922C402.834 5.50391 403.654 6.79883 404.264 8.33398C404.873 9.85742 405.178 11.6035 405.178 13.5723ZM400.449 13.9062C400.449 12.4531 400.203 11.1816 399.711 10.0918C399.219 8.99023 398.58 8.07031 397.795 7.33203C397.01 6.59375 396.119 6.04297 395.123 5.67969C394.127 5.30469 393.131 5.11719 392.135 5.11719C390.986 5.11719 389.92 5.32812 388.936 5.75C387.951 6.17188 387.096 6.78125 386.369 7.57812C385.643 8.36328 385.068 9.32422 384.646 10.4609C384.236 11.5859 384.031 12.8516 384.031 14.2578C384.031 15.5938 384.236 16.7832 384.646 17.8262C385.057 18.8691 385.619 19.7539 386.334 20.4805C387.049 21.1953 387.881 21.7461 388.83 22.1328C389.791 22.5078 390.811 22.6953 391.889 22.6953C392.979 22.6953 394.033 22.5078 395.053 22.1328C396.084 21.7461 396.998 21.1836 397.795 20.4453C398.604 19.6953 399.248 18.7754 399.729 17.6855C400.209 16.584 400.449 15.3242 400.449 13.9062ZM428.785 19.0215C428.469 20.627 428.064 21.9512 427.572 22.9941C427.08 24.0254 426.582 24.8398 426.078 25.4375C425.574 26.0352 425.1 26.4512 424.654 26.6855C424.221 26.9199 423.893 27.0371 423.67 27.0371C423.318 27.0371 422.867 26.8848 422.316 26.5801C421.766 26.2754 421.156 25.8828 420.488 25.4023C419.832 24.9219 419.146 24.3828 418.432 23.7852C417.729 23.1758 417.049 22.5723 416.393 21.9746C415.736 21.377 415.133 20.8145 414.582 20.2871C414.031 19.7598 413.586 19.3262 413.246 18.9863L413.387 23.3281L417.096 25.3848L405.934 26.1758L409.678 22.7305L410.328 5.04688L405.758 2.84961C408.043 2.7207 409.982 2.62695 411.576 2.56836C413.17 2.49805 414.488 2.45117 415.531 2.42773C416.574 2.4043 417.377 2.39258 417.939 2.39258C418.502 2.39258 418.9 2.39258 419.135 2.39258C419.639 2.39258 420.184 2.43945 420.77 2.5332C421.367 2.61523 421.959 2.76172 422.545 2.97266C423.131 3.17187 423.699 3.42969 424.25 3.74609C424.801 4.0625 425.287 4.44922 425.709 4.90625C426.131 5.36328 426.465 5.89648 426.711 6.50586C426.969 7.10352 427.098 7.7832 427.098 8.54492C427.098 8.7207 427.074 8.9668 427.027 9.2832C426.992 9.58789 426.91 9.94531 426.781 10.3555C426.652 10.7539 426.459 11.1816 426.201 11.6387C425.943 12.084 425.592 12.5352 425.146 12.9922C424.713 13.4375 424.174 13.8711 423.529 14.293C422.885 14.7148 422.105 15.0898 421.191 15.418C420.289 15.7461 419.234 16.0156 418.027 16.2266C416.832 16.4258 415.461 16.5371 413.914 16.5605C414.676 17.1348 415.502 17.75 416.393 18.4062C417.283 19.0508 418.186 19.6484 419.1 20.1992C420.014 20.7383 420.91 21.1895 421.789 21.5527C422.668 21.9043 423.488 22.0801 424.25 22.0801C424.613 22.0801 425 22.0391 425.41 21.957C425.832 21.875 426.242 21.7227 426.641 21.5C427.051 21.2656 427.438 20.9551 427.801 20.5684C428.176 20.1699 428.504 19.6543 428.785 19.0215ZM422.018 9.37109C422.018 9.00781 421.988 8.64453 421.93 8.28125C421.871 7.91797 421.748 7.57227 421.561 7.24414C421.373 6.91602 421.104 6.60547 420.752 6.3125C420.4 6.01953 419.926 5.76758 419.328 5.55664C418.742 5.3457 418.016 5.18164 417.148 5.06445C416.281 4.93555 415.244 4.87109 414.037 4.87109C413.85 4.87109 413.668 4.87109 413.492 4.87109C413.316 4.87109 413.135 4.88281 412.947 4.90625L413.123 14.293C413.861 14.2812 414.594 14.2227 415.32 14.1172C416.047 14 416.738 13.8418 417.395 13.6426C418.051 13.4434 418.66 13.2031 419.223 12.9219C419.797 12.6406 420.289 12.3242 420.699 11.9727C421.109 11.6094 421.432 11.2109 421.666 10.7773C421.9 10.3438 422.018 9.875 422.018 9.37109ZM447.98 25.3496L428.17 26.1406L432.564 21.6406L433.795 5.45117L428.504 2.84961L447.33 1.51367L447.646 9.75781L444.377 3.9043L436.344 5.1875L436.607 13.502L438.436 13.2559L442.074 8.43945L442.32 19.5137L439.156 14.9785L436.643 15.3477L436.854 22.6074L444.729 23.3281L447.682 15.9629L447.98 25.3496Z" fill="#E3DDDD"/>
</svg>
